<?xml version="1.0" encoding="utf-8"?>
<!-- Generator: Adobe Illustrator 23.1.1, SVG Export Plug-In . SVG Version: 6.00 Build 0)  -->
<svg version="1.1" id="Layer_1" xmlns="http://www.w3.org/2000/svg" xmlns:xlink="http://www.w3.org/1999/xlink" x="0px" y="0px"
	 viewBox="0 0 1000 1000" style="enable-background:new 0 0 1000 1000;" xml:space="preserve">
<g>
	<g>
		<path d="M74.74,953.2c110.59,0,221.17,0,331.76,0s221.17,0,331.76,0c61.96,0,123.91,0,185.87,0c6.43,0,6.45-10,0-10
			c-110.59,0-221.17,0-331.76,0s-221.17,0-331.76,0c-61.96,0-123.91,0-185.87,0C68.3,943.2,68.29,953.2,74.74,953.2L74.74,953.2z"/>
	</g>
</g>
<g>
	<g>
		<path d="M179.57,947.2c0-115.84,0-231.68,0-347.52c0-115.17,0-230.35,0-345.52c0-65.2,0-130.39,0-195.59c0-6.43-10-6.45-10,0
			c0,115.79,0,231.59,0,347.38c0,115.17,0,230.35,0,345.52c0,65.24,0,130.49,0,195.73C169.57,953.63,179.57,953.64,179.57,947.2
			L179.57,947.2z"/>
	</g>
</g>
<g>
	<g>
		<path d="M174.57,63.76c73.25,0,146.5,0,219.75,0s146.5,0,219.75,0c41.29,0,82.57,0,123.86,0c6.43,0,6.45-10,0-10
			c-73.25,0-146.5,0-219.75,0s-146.5,0-219.75,0c-41.29,0-82.57,0-123.86,0C168.14,53.76,168.13,63.76,174.57,63.76L174.57,63.76z"
			/>
	</g>
</g>
<g>
	<g>
		<path d="M732.94,58.56c0,16.1,0,32.2,0,48.31c0,6.43,10,6.45,10,0c0-16.1,0-32.2,0-48.31C742.94,52.13,732.94,52.12,732.94,58.56
			L732.94,58.56z"/>
	</g>
</g>
<g>
	<g>
		<path d="M734.92,101.67c-66.47,0-132.93,0-199.4,0c-66.8,0-133.6,0-200.39,0c-37.55,0-75.11,0-112.66,0c-6.43,0-6.45,10,0,10
			c66.47,0,132.93,0,199.4,0c66.8,0,133.6,0,200.39,0c37.55,0,75.11,0,112.66,0C741.36,111.67,741.37,101.67,734.92,101.67
			L734.92,101.67z"/>
	</g>
</g>
<g>
	<g>
		<path d="M217.48,107.87c0,109.11,0,218.23,0,327.34s0,218.23,0,327.34c0,61.21,0,122.42,0,183.63c0,6.43,10,6.45,10,0
			c0-109.11,0-218.23,0-327.34s0-218.23,0-327.34c0-61.21,0-122.42,0-183.63C227.48,101.44,217.48,101.43,217.48,107.87
			L217.48,107.87z"/>
	</g>
</g>
<g>
	<g>
		<path d="M226.57,220.4c36.52-36.6,73.05-73.21,109.57-109.81c4.55-4.56-2.52-11.63-7.07-7.07
			c-36.52,36.6-73.05,73.21-109.57,109.81C214.95,217.89,222.02,224.97,226.57,220.4L226.57,220.4z"/>
	</g>
</g>
<g>
	<g>
		<path d="M226.57,286.29c45.35-45.41,90.7-90.82,136.06-136.23c13.27-13.29,26.54-26.57,39.81-39.86
			c4.55-4.56-2.52-11.63-7.07-7.07c-45.35,45.41-90.7,90.82-136.06,136.23c-13.27,13.29-26.54,26.57-39.81,39.86
			C214.95,283.78,222.01,290.85,226.57,286.29L226.57,286.29z"/>
	</g>
</g>
<g>
	<g>
		<path d="M487.15,801.61c0,48.26,0,96.51,0,144.77c0,6.43,10,6.45,10,0c0-48.26,0-96.51,0-144.77
			C497.15,795.18,487.15,795.17,487.15,801.61L487.15,801.61z"/>
	</g>
</g>
<g>
	<g>
		<path d="M492.15,806.61c64.08,0,128.15,0,192.23,0c6.43,0,6.45-10,0-10c-64.08,0-128.15,0-192.23,0
			C485.71,796.61,485.7,806.61,492.15,806.61L492.15,806.61z"/>
	</g>
</g>
<g>
	<g>
		<path d="M679.77,802.01c0,48.39,0,96.77,0,145.16c0,6.43,10,6.45,10,0c0-48.39,0-96.77,0-145.16
			C689.77,795.57,679.77,795.56,679.77,802.01L679.77,802.01z"/>
	</g>
</g>
<g>
	<g>
		<path d="M684.37,941.38c-64.08,0-128.15,0-192.23,0c-6.43,0-6.45,10,0,10c64.08,0,128.15,0,192.23,0
			C690.81,951.38,690.82,941.38,684.37,941.38L684.37,941.38z"/>
	</g>
</g>
<g>
	<g>
		<path d="M511.54,802.94c26.78-73.59,53.57-147.18,80.35-220.77c2.2-6.06-7.46-8.67-9.64-2.66
			c-26.78,73.59-53.57,147.18-80.35,220.77C499.69,806.34,509.35,808.95,511.54,802.94L511.54,802.94z"/>
	</g>
</g>
<g>
	<g>
		<path d="M497.1,529.56c31.16-53.98,62.33-107.96,93.49-161.94c3.22-5.58-5.41-10.62-8.63-5.05
			c-31.16,53.98-62.33,107.96-93.49,161.94C485.25,530.09,493.88,535.13,497.1,529.56L497.1,529.56z"/>
	</g>
</g>
<g>
	<g>
		<path d="M591.28,591.85c0-63.72,0-127.43,0-191.15c0-22.46,0-44.91,0-67.37c0-6.43-10-6.45-10,0c0,63.72,0,127.43,0,191.15
			c0,22.46,0,44.91,0,67.37C581.28,598.28,591.28,598.29,591.28,591.85L591.28,591.85z"/>
	</g>
</g>
<g>
	<g>
		<path d="M672.25,799.06c-26.78-73.59-53.57-147.18-80.35-220.77c-2.18-6-11.85-3.41-9.64,2.66
			c26.78,73.59,53.57,147.18,80.35,220.77C664.79,807.72,674.46,805.13,672.25,799.06L672.25,799.06z"/>
	</g>
</g>
<g>
	<g>
		<path d="M666.07,803.61c16.46,0,32.92,0,49.38,0c6.43,0,6.45-10,0-10c-16.46,0-32.92,0-49.38,0
			C659.63,793.61,659.62,803.61,666.07,803.61L666.07,803.61z"/>
	</g>
</g>
<g>
	<g>
		<path d="M457.72,802.85c16.46,0,32.92,0,49.38,0c6.43,0,6.45-10,0-10c-16.46,0-32.92,0-49.38,0
			C451.29,792.85,451.28,802.85,457.72,802.85L457.72,802.85z"/>
	</g>
</g>
<g>
	<g>
		<path d="M686.07,524.51c-31.16-53.98-62.33-107.96-93.49-161.94c-3.22-5.57-11.86-0.54-8.63,5.05
			c31.16,53.98,62.33,107.96,93.49,161.94C680.65,535.13,689.3,530.1,686.07,524.51L686.07,524.51z"/>
	</g>
</g>
<g>
	<g>
		<path d="M520.96,273c0.31,27.24,17.14,51.62,42.67,61.27c25.43,9.61,55.53,1.54,72.79-19.42c17.39-21.12,20.12-51.55,6.05-75.19
			c-14.01-23.53-41.66-35.74-68.5-30.8C543.31,214.5,521.31,242.21,520.96,273c-0.07,6.44,9.93,6.44,10,0
			c0.26-22.79,14.34-43.9,35.95-51.85c22-8.09,46.99-1.39,62.02,16.58c14.82,17.73,16.69,43.78,4.9,63.57
			c-11.73,19.69-35.3,30.49-57.88,26.07c-26.01-5.09-44.69-27.97-44.99-54.37C530.89,266.57,520.89,266.55,520.96,273z"/>
	</g>
</g>
<g>
	<g>
		<path d="M565.34,258.93c6.43,0,6.45-10,0-10C558.91,248.93,558.9,258.93,565.34,258.93L565.34,258.93z"/>
	</g>
</g>
<g>
	<g>
		<path d="M605.42,259.46c6.43,0,6.45-10,0-10C598.99,249.46,598.98,259.46,605.42,259.46L605.42,259.46z"/>
	</g>
</g>
<g>
	<g>
		<path d="M564.65,305.17c13-8.04,29.6-8.86,42.42,0c5.31,3.67,10.31-5,5.05-8.63c-15.6-10.79-36.71-9.78-52.51,0
			C554.14,299.91,559.15,308.56,564.65,305.17L564.65,305.17z"/>
	</g>
</g>
<g>
	<g>
		<path d="M581.28,109.82c0,32.43,0,64.87,0,97.3c0,6.43,10,6.45,10,0c0-32.43,0-64.87,0-97.3
			C591.28,103.39,581.28,103.38,581.28,109.82L581.28,109.82z"/>
	</g>
</g>
</svg>
